<svg xmlns="http://www.w3.org/2000/svg" xmlns:xlink="http://www.w3.org/1999/xlink" version="1.1" x="0px" y="0px" viewBox="0 -131.063 500 361.784" enable-background="new 0 -131.063 500 361.784" xml:space="preserve" fill="currentColor" original_string_length="1168" width="401.5416666666668px" height="291.11770833333344px">
<g id="__id32_sorjyw6zsg">
	<g id="__id33_sorjyw6zsg">
		<path d="M0,49.83c0,37.263,29.251,67.618,66.029,69.549V-19.724C29.248-17.781,0,12.564,0,49.83z" fill="currentColor"/>
	</g>
</g>
<g id="__id34_sorjyw6zsg">
	<g id="__id35_sorjyw6zsg">
		<path d="M252.893,119.574V-19.912H69.737c-1.251,0-2.474,0.122-3.705,0.184v139.106    c1.237,0.067,2.457,0.195,3.705,0.195H252.893z" fill="currentColor"/>
	</g>
</g>
<g id="__id36_sorjyw6zsg">
	<g id="__id37_sorjyw6zsg">
		<path d="M253.049,119.574v84.73c0,25.681,16.826,34.108,37.381,18.726L484.579,77.79    c20.556-15.372,20.565-40.544,0-55.932L290.429-123.372c-20.559-15.382-37.381-6.959-37.381,18.721v84.743h-0.155v139.482H253.049    z" fill="currentColor"/>
	</g>
</g>
</svg>