<svg xmlns="http://www.w3.org/2000/svg" xmlns:xlink="http://www.w3.org/1999/xlink" preserveAspectRatio="xMidYMid meet" version="1.0" viewBox="71.5 59.6 145.0 168.8" zoomAndPan="magnify" style="fill: rgb(0, 0, 0);" original_string_length="23537" width="69.49893423001758px" height="80.98392759853745px"><g id="__id3_set5ag753f" style="fill: rgb(158, 145, 133);"><path d="M145.86,228.339c-.179-.053-.357-.117-.539-.161a4.992,4.992,0,0,1-1.968-1.113c-.1-.079-.185-.167-.273-.254a1.351,1.351,0,0,0-1.04-.4q-2.4.04-4.792,0c-.686-.012-1.369-.111-2.053-.174-.387-.036-.772-.09-1.159-.119a13.459,13.459,0,0,1-4.937-1.293c-.649-.316-1.336-.552-2.013-.805-.872-.326-1.752-.635-2.628-.955a.483.483,0,0,1-.177-.147,3.322,3.322,0,0,0-1.023-.83,2.444,2.444,0,0,1-.575-.461c-.7-.684-1.382-1.378-2.075-2.067a.838.838,0,0,0-.16-.106c.009.063.022.128.026.191s0,.1,0,.142a.494.494,0,0,1-.13-.065q-.566-.6-1.128-1.2c-.132-.141-.253-.3-.4-.43a3.729,3.729,0,0,1-1.079-1.735,5.448,5.448,0,0,0-.724-1.469c-.293-.442-.529-.923-.834-1.356a12.231,12.231,0,0,0-.94-1.144c-.607-.669-1.249-1.308-1.847-1.985-.539-.609-1.065-1.235-1.555-1.882-1.527-2.017-3.054-4.035-4.4-6.182a47.758,47.758,0,0,1-2.662-4.713,6.825,6.825,0,0,1-.643-2.062,1.79,1.79,0,0,1,.023-.419c.016-.157.042-.315.062-.472a.359.359,0,0,0-.18-.4.769.769,0,0,1-.3-.348,12,12,0,0,0-1.282-2.317,13.819,13.819,0,0,1-1.585-3.051,7.737,7.737,0,0,1-.388-1.965c-.023-.281-.077-.56-.091-.84a8.26,8.26,0,0,1,.361-2.664,23.217,23.217,0,0,1,2.14-4.953c.754-1.363,1.455-2.753,2.075-4.185.576-1.33,1.156-2.658,1.76-3.976a1.466,1.466,0,0,0,.068-1.256c-.408-1.014-.778-2.047-1.134-3.081a26.816,26.816,0,0,1-1.149-4.72c-.161-1.066-.254-2.134-.328-3.208-.055-.816-.066-1.626-.06-2.439.008-1.079.048-2.157.105-3.235.048-.9.134-1.794.209-2.691.02-.245.065-.488.1-.732a1.04,1.04,0,0,0-.239-1,3.132,3.132,0,0,1-.45-.951,47.064,47.064,0,0,0-2.251-4.392c-.426-.755-.822-1.529-1.241-2.287-.763-1.378-1.551-2.742-2.3-4.129-1.3-2.416-2.4-4.926-3.466-7.454a73.838,73.838,0,0,0-3.112-6.744c-.763-1.4-1.546-2.785-2.332-4.171-.664-1.17-1.326-2.341-2.025-3.489a45.469,45.469,0,0,0-3.339-4.849q-1.6-1.986-3.229-3.943c-.567-.679-1.192-1.31-1.76-1.989-.84-1.005-1.672-2.016-2.47-3.054-1.622-2.1-3.067-4.33-4.536-6.541a2.57,2.57,0,0,1-.181-.325.567.567,0,0,1,.142-.713.494.494,0,0,1,.637-.051,2.048,2.048,0,0,1,.5.527c.558.818,1.1,1.647,1.648,2.473,1.259,1.905,2.595,3.755,4.036,5.526.648.8,1.341,1.555,2.01,2.333.647.751,1.3,1.5,1.933,2.26s1.245,1.5,1.849,2.259c.527.666,1.044,1.341,1.539,2.03a62.526,62.526,0,0,1,3.629,5.74c1.107,1.955,2.232,3.9,3.278,5.892.933,1.772,1.733,3.6,2.5,5.443q.817,1.959,1.71,3.884c.629,1.368,1.257,2.735,1.951,4.069.726,1.4,1.529,2.753,2.3,4.129.225.4.441.808.662,1.213.759,1.4,1.524,2.8,2.274,4.2.216.406.386.836.58,1.252.02.043.072.072.108.108a.486.486,0,0,0,.054-.124c.209-1.285.422-2.572.624-3.859.122-.783.217-1.572.342-2.355a3.041,3.041,0,0,1,.217-.757.563.563,0,0,1,.716-.306.5.5,0,0,1,.363.574c-.024.4-.077.808-.137,1.21-.129.854-.27,1.7-.408,2.557-.207,1.27-.438,2.537-.615,3.81-.15,1.065-.23,2.139-.355,3.208-.135,1.159-.152,2.325-.232,3.487-.064.9-.054,1.8-.073,2.705a29.78,29.78,0,0,0,.191,3.544,25.929,25.929,0,0,0,1,4.967c.293.96.691,1.89,1.042,2.833a.914.914,0,0,0,.066.123c.037-.035.09-.064.107-.109.219-.541.445-1.077.644-1.626q.953-2.613,1.887-5.231c.893-2.512,1.826-5.011,2.888-7.458.655-1.512,1.444-2.956,2.221-4.408a36.7,36.7,0,0,1,2.492-4.072c.783-1.093,1.6-2.158,2.406-3.237.824-1.106,1.686-2.187,2.463-3.324a24.086,24.086,0,0,0,2.4-4.544q.458-1.131,1-2.227a35.308,35.308,0,0,0,1.951-4.755c.66-2.047,1.324-4.092,1.848-6.182.467-1.862.937-3.726,1.5-5.562a15.064,15.064,0,0,1,2.713-5.362,17.368,17.368,0,0,1,1.99-1.987q1.589-1.371,3.169-2.751c.24-.209.485-.414.707-.643.666-.687,1.322-1.384,1.981-2.079.218-.231.223-.251-.028-.453q-.974-.779-1.962-1.541c-1.245-.963-2.48-1.94-3.745-2.879a19.309,19.309,0,0,1-2.588-2.281,16.548,16.548,0,0,1-2.671-3.687c-.906-1.743-1.79-3.5-2.633-5.274-.522-1.1-.946-2.247-1.421-3.369-.3-.717-.615-1.429-.926-2.141q-.975-2.235-1.953-4.471c-.4-.906-.8-1.811-1.213-2.711-.844-1.851-1.7-3.7-2.544-5.547-.457-1-.905-2-1.355-3a3.7,3.7,0,0,1-.188-.495.623.623,0,0,1,.257-.693.543.543,0,0,1,.723.1,1.183,1.183,0,0,1,.23.353c.8,1.772,1.593,3.549,2.4,5.319.66,1.448,1.353,2.883,2,4.337.592,1.322,1.142,2.665,1.715,4,.316.73.651,1.453.965,2.184.677,1.575,1.346,3.153,2.019,4.73.188.439.369.881.578,1.31.647,1.32,1.309,2.634,1.962,3.95a17.37,17.37,0,0,0,3.964,5.279c.527.471,1.1.887,1.66,1.322q2.054,1.595,4.114,3.184c.461.358.92.718,1.382,1.074.245.188.281.192.492-.018.327-.327.649-.657.962-1,.6-.652,1.182-1.319,1.786-1.966,1.344-1.437,2.6-2.946,3.793-4.509.977-1.279,2-2.526,3-3.788q1.55-1.956,3.094-3.915c1.157-1.475,2.318-2.948,3.458-4.437,1.495-1.953,2.962-3.926,4.456-5.878.644-.843,1.333-1.653,1.988-2.488.382-.485.751-.985,1.111-1.489a50.514,50.514,0,0,0,3.522-5.618,45.885,45.885,0,0,0,2.05-4.309,6.812,6.812,0,0,1,.53-.979,1.469,1.469,0,0,1,.362-.384.625.625,0,0,1,.859.119.551.551,0,0,1-.03.809,2.364,2.364,0,0,0-.648,1.076,47.44,47.44,0,0,1-2.195,4.541,45.147,45.147,0,0,1-3.063,4.9q-1.248,1.752-2.617,3.409c-.653.789-1.243,1.631-1.863,2.449-1.048,1.381-2.091,2.765-3.146,4.141q-1.338,1.751-2.7,3.484-1.29,1.653-2.6,3.292c-.912,1.151-1.834,2.3-2.743,3.446-1.207,1.528-2.391,3.073-3.615,4.587-.6.743-1.26,1.439-1.906,2.144-.97,1.059-1.957,2.1-2.921,3.164-.2.217-.28.541-.485.749-.19.193-.446.308-.646.524a47.048,47.048,0,0,1-3.785,3.807c-1.072.925-2.18,1.809-3.229,2.76a11.626,11.626,0,0,0-1.28,1.488,12.384,12.384,0,0,0-1.73,3.327,48.191,48.191,0,0,0-1.582,5.486c-.42,1.7-.892,3.375-1.43,5.036-.222.688-.4,1.392-.632,2.076-.276.8-.581,1.594-.9,2.379-.373.915-.768,1.823-1.169,2.728-.565,1.277-1.128,2.557-1.726,3.819-.348.734-.767,1.433-1.154,2.148a37.2,37.2,0,0,1-2.639,3.718c-1.27,1.788-2.7,3.463-3.855,5.331-.419.677-.836,1.355-1.211,2.056-.692,1.3-1.393,2.591-2.011,3.924-.654,1.41-1.252,2.848-1.807,4.3q-1.419,3.711-2.745,7.457-.962,2.726-2.086,5.383c-.694,1.646-1.432,3.272-2.171,4.9-.423.935-.873,1.859-1.334,2.776-.335.664-.722,1.3-1.061,1.962a18.3,18.3,0,0,0-1.761,4.474,6.594,6.594,0,0,0-.054,2.688c.048.24.027.5.074.738a9.006,9.006,0,0,0,1.282,3c.444.724.882,1.45,1.322,2.176.074.121.147.242.218.366s.138.1.189,0c.876-1.744,2.047-3.306,3.019-4.991.036-.062.07-.123.1-.185.694-1.336,1.4-2.665,2.076-4.01a20.954,20.954,0,0,0,1.592-4.317,27.011,27.011,0,0,0,.475-2.866c.129-.941.17-1.9.339-2.832a18.827,18.827,0,0,1,.617-2.187,14.8,14.8,0,0,1,1.908-3.949,2.584,2.584,0,0,1,.863-.919.643.643,0,0,1,.812.088.6.6,0,0,1-.074.86,5.006,5.006,0,0,0-1.2,1.663,16.041,16.041,0,0,0-1.595,4.143,10.211,10.211,0,0,0-.273,1.774,29.1,29.1,0,0,1-.5,3.611,23.133,23.133,0,0,1-2.184,6.117,57.09,57.09,0,0,1-3.649,6.409c-.321.465-.614.952-.893,1.446a6.757,6.757,0,0,0-.861,2.267,2.935,2.935,0,0,0,.3,1.7,41.325,41.325,0,0,0,2.022,3.79,75.207,75.207,0,0,0,4.636,6.726,24.837,24.837,0,0,0,2.915,3.374.939.939,0,0,0,.2.109.973.973,0,0,0-.011-.2c-.28-1.093-.57-2.181-.843-3.276a14.271,14.271,0,0,1-.421-2.39,9.761,9.761,0,0,1,.941-5.185,29.549,29.549,0,0,1,2.644-4.349,25.347,25.347,0,0,0,2.4-4.3c.863-1.863,1.794-3.695,2.7-5.539.493-1,.988-2,1.5-2.994.831-1.623,1.757-3.194,2.708-4.749.313-.512.583-1.051.856-1.586a.661.661,0,0,1,.778-.379.671.671,0,0,1,.362.74,3.927,3.927,0,0,1-.656,1.381c-1.022,1.7-2.069,3.38-2.947,5.161-1.245,2.525-2.514,5.039-3.764,7.562-.313.633-.582,1.288-.882,1.931a23.106,23.106,0,0,1-2.171,3.643,22.974,22.974,0,0,0-1.967,3.149c-.2.4-.39.792-.59,1.187a5.784,5.784,0,0,0-.621,2.5c-.008.28-.076.559-.088.84a12.6,12.6,0,0,0,.444,3.295c.2.875.414,1.751.69,2.6.362,1.123.782,2.23,1.195,3.338.191.513.428,1.008.641,1.514a8.56,8.56,0,0,0,1.606,2.487c.875.953,1.788,1.873,2.685,2.805a1.34,1.34,0,0,0,.122.1c0-.064,0-.127,0-.188-.051-.492-.082-.985-.159-1.472a21.538,21.538,0,0,1-.095-3.4,11.6,11.6,0,0,1,.948-4.532c.363-.861.812-1.689,1.246-2.518,1.027-1.96,2.046-3.927,3.108-5.867,1.376-2.514,2.8-5,4.315-7.437,1.213-1.954,2.415-3.918,3.452-5.974.264-.521.543-1.034.82-1.549a1.558,1.558,0,0,1,.236-.35.544.544,0,0,1,.72-.1.534.534,0,0,1,.26.682,6.579,6.579,0,0,1-.41.92c-.322.611-.676,1.2-1,1.816-.769,1.477-1.648,2.89-2.506,4.314-1.1,1.834-2.216,3.665-3.274,5.525-.971,1.708-1.883,3.45-2.81,5.182-.943,1.763-1.894,3.525-2.8,5.307a8.714,8.714,0,0,0-.923,3.187c-.074.808-.184,1.617-.185,2.424s.105,1.617.179,2.425c.061.667.145,1.331.223,2,.036.3.08.594.12.891.027.2.175.285.327.387a8.074,8.074,0,0,0,2.321,1.023,20.581,20.581,0,0,1,3.349,1.318,8.743,8.743,0,0,0,2.64.732c.785.106,1.571.2,2.357.3a.457.457,0,0,0,.052,0c.652.038,1.3.1,1.958.109,1.225.02,2.449.011,3.674.014.09,0,.177,0,.267,0,.18-.014.208-.079.1-.233-.284-.405-.578-.8-.849-1.219a8.107,8.107,0,0,1-.885-2.031c-.345-1.091-.7-2.18-1.059-3.268a.612.612,0,0,0-.06-.109c-.012.032-.026.065-.037.1-.1.3-.2.6-.308.9a2.976,2.976,0,0,1-.208.485.627.627,0,0,1-.766.274c-.336-.148-.426-.317-.327-.721a6,6,0,0,1,.251-.75,8.552,8.552,0,0,0,.387-1.7c.009-.052-.012-.116.011-.157.311-.557.032-1.056-.167-1.551a18.724,18.724,0,0,1-.989-3.666,2.1,2.1,0,0,1-.012-.372c0-.975-.05-1.956.013-2.928a20.99,20.99,0,0,1,.443-3.722c.344-1.384.587-2.793.935-4.175.241-.958.571-1.892.885-2.829a3.592,3.592,0,0,0,.177-.983,7.859,7.859,0,0,1,.786-3.214c.362-.709.689-1.436,1.028-2.156a2.523,2.523,0,0,1,1.451-1.328,2.719,2.719,0,0,1,2.331.243,3.633,3.633,0,0,1,1.6,1.657,1.117,1.117,0,0,0,.115.156.931.931,0,0,0,.026-.207c-.04-.385-.075-.773-.134-1.156-.157-1.009-.329-2.016-.488-3.024-.05-.312-.085-.63-.107-.946-.049-.687-.1-1.375-.121-2.064-.02-.709,0-1.419,0-2.13a8.907,8.907,0,0,1,.38-2.449c.306-1.068.585-2.144.931-3.2.259-.787.615-1.541.91-2.318a6.985,6.985,0,0,1,.789-1.5,2.835,2.835,0,0,1,1.145-.917,1.174,1.174,0,0,1,1.413.234c.284.264.52.578.78.866a.382.382,0,0,0,.111.065.312.312,0,0,0,.006-.1,14.441,14.441,0,0,1-.311-2.463,9.843,9.843,0,0,1,.153-2.836c.2-.929.223-1.883.5-2.8a13.373,13.373,0,0,1,1.942-4.214,2.288,2.288,0,0,1,.434-.466,1.009,1.009,0,0,1,.987-.2,4.369,4.369,0,0,1,2.465,2.066c.143.244.273.5.408.745.685,1.257,1.431,2.48,2.019,3.788a2,2,0,0,1,.178.439.879.879,0,0,0,.294.538,1.522,1.522,0,0,1,.307.492c.459,1.012.9,2.034,1.365,3.045.487,1.061.957,2.133,1.5,3.166a42.539,42.539,0,0,1,2.889,7,46.265,46.265,0,0,1,1.328,5.279c.168.883.347,1.763.5,2.649.133.782.228,1.571.348,2.354.124.8.267,1.6.387,2.4.094.628.162,1.26.248,1.888.09.646.2,1.289.281,1.936.092.717.171,1.435.251,2.153.068.612.13,1.226.194,1.839.007.052.008.106.011.159q.06,1.031.122,2.064c.035.616.08,1.232.1,1.851a.352.352,0,0,0,.236.365,2.834,2.834,0,0,1,.425.217,2.018,2.018,0,0,0,1.836.113,4.006,4.006,0,0,0,2.061-1.6,17.668,17.668,0,0,0,1.8-3.355c.55-1.4,1.093-2.794,1.552-4.224a20.173,20.173,0,0,0,.727-3.138,11.862,11.862,0,0,0,.193-2.69c-.062-.789-.157-1.578-.282-2.361-.122-.765-.293-1.521-.453-2.28a23.247,23.247,0,0,0-1.055-3.489c-.793-2.061-1.57-4.126-2.367-6.184-.344-.889-.692-1.78-1.091-2.646-.584-1.27-1.208-2.523-1.831-3.774a34.986,34.986,0,0,0-2.87-4.584c-.152-.217-.3-.435-.458-.65-.018-.027-.057-.036-.088-.054a.444.444,0,0,0-.038.1c-.071.595-.117,1.193-.214,1.785a8.871,8.871,0,0,1-.678,2.328,2.92,2.92,0,0,1-2.4,1.784,2.768,2.768,0,0,1-2.124-.659,3.074,3.074,0,0,1-.646-.766,33.722,33.722,0,0,1-2.3-4.534,3.674,3.674,0,0,1-.258-1.179,12.236,12.236,0,0,1,.717-4.735,6.5,6.5,0,0,1,.317-.727,1,1,0,0,1,.944-.575,4.532,4.532,0,0,1,.891.088,9.281,9.281,0,0,1,.923.229,4.115,4.115,0,0,1,2.182,1.522c.439.576.853,1.173,1.312,1.732.381.464.817.882,1.224,1.324a4.8,4.8,0,0,1,.485.556c1.04,1.519,2.115,3.014,3.092,4.572a36.239,36.239,0,0,1,2.537,4.841c.428.989.867,1.974,1.267,2.974.575,1.445,1.117,2.9,1.673,4.351.449,1.172.942,2.328,1.331,3.519.36,1.1.639,2.238.9,3.371a28.023,28.023,0,0,1,.509,2.86,14.577,14.577,0,0,1,.111,2.434,22.452,22.452,0,0,1-.336,2.352,34.641,34.641,0,0,1-1.563,5.325c-.011.034-.026.066-.04.1-.145.342-.291.682-.436,1.025a16.912,16.912,0,0,0,.516,1.713,9.219,9.219,0,0,0,3.218,3.806,11.821,11.821,0,0,0,3.875,1.795c.356.1.712.2,1.069.3a.411.411,0,0,0,.153-.018c-.018-.042-.025-.1-.055-.12a7.677,7.677,0,0,1-2.124-3.43,12.9,12.9,0,0,1-.715-2.814,8.254,8.254,0,0,1,.135-3.357,3.5,3.5,0,0,1,2.187-2.548.42.42,0,0,0,.316-.5c-.049-.848-.066-1.695-.12-2.543-.057-.915-.106-1.834-.222-2.742-.173-1.362-.294-2.731-.6-4.076-.193-.859-.293-1.737-.461-2.6-.159-.812-.35-1.618-.534-2.424-.06-.261-.077-.261-.308-.173-.447.168-.886.359-1.342.49a4.153,4.153,0,0,1-1.144.191,1.134,1.134,0,0,1-1.068-.659,8.97,8.97,0,0,1-.814-2.4c-.049-.259-.083-.522-.108-.786-.012-.135-.038-.243-.177-.291a1.385,1.385,0,0,1-.737-.862c-.217-.464-.4-.941-.607-1.411a11.757,11.757,0,0,1-.824-3.163c-.1-.734-.2-1.466-.3-2.2a2.127,2.127,0,0,1-.009-.265c0-.781-.025-1.562-.008-2.342a18.231,18.231,0,0,1,.373-3.148c.154-.776.275-1.562.47-2.33.233-.922.518-1.833.8-2.739a1.115,1.115,0,0,0,.011-.758q-1.025-2.925-2.023-5.857a42.548,42.548,0,0,1-1.464-5.406c-.149-.76-.388-1.5-.548-2.26-.222-1.051-.42-2.107-.606-3.164-.153-.868-.281-1.739-.4-2.611-.062-.436-.082-.878-.131-1.318-.054-.471-.123-.943-.179-1.415-.048-.4-.094-.806-.123-1.209-.048-.652-.083-1.306-.122-1.958-.034-.6-.077-1.2-.095-1.8a10.476,10.476,0,0,1,.8-4.025,19,19,0,0,1,3.134-5.266c.669-.825,1.381-1.614,2.084-2.411,1.066-1.208,2.142-2.407,3.215-3.609.106-.119.22-.232.332-.346q3.211-3.226,6.421-6.456c.6-.6,1.17-1.237,1.774-1.834.947-.934,1.9-1.866,2.875-2.768,1.419-1.309,2.86-2.594,4.3-3.878q1.685-1.5,3.4-2.974c.928-.794,1.884-1.556,2.819-2.339.584-.488,1.15-1,1.731-1.49,1.349-1.145,2.693-2.3,4.057-3.425s2.721-2.207,4.082-3.31c.358-.29.7-.6,1.07-.871a.572.572,0,0,1,.9.364.61.61,0,0,1-.211.572,8.583,8.583,0,0,1-.732.7c-1.609,1.3-3.235,2.585-4.835,3.9-1.2.988-2.373,2.018-3.563,3.022-1.284,1.085-2.579,2.16-3.858,3.249-.9.769-1.794,1.552-2.685,2.337q-1.695,1.491-3.383,2.991c-.384.341-.769.683-1.145,1.033-.728.677-1.452,1.353-2.17,2.041-.859.821-1.722,1.638-2.559,2.481q-3.675,3.7-7.324,7.429c-.84.861-1.61,1.789-2.413,2.686-.39.435-.794.86-1.176,1.3-.856.992-1.737,1.964-2.543,3a15.836,15.836,0,0,0-2.708,5.076,7.671,7.671,0,0,0-.423,2.654c.047.989.057,1.98.13,2.968.077,1.054.185,2.108.316,3.156.186,1.486.408,2.966.615,4.448.037.262.094.523.114.785a.333.333,0,0,0,.237.311c.393.161.786.318,1.176.484a12.118,12.118,0,0,1,1.917,1.133c1.314.872,2.531,1.871,3.775,2.838.866.671,1.751,1.325,2.575,2.046a34.2,34.2,0,0,1,3.117,3.046,22.309,22.309,0,0,1,2.211,2.782,10.052,10.052,0,0,1,1.318,2.768,4.711,4.711,0,0,1,.19,1.3c-.013.923-.005,1.846-.008,2.769a19.867,19.867,0,0,1-.456,3.935c-.365,1.78-.857,3.528-1.393,5.264a17.133,17.133,0,0,1-.609,2.073c-.419.915-.64,1.9-1.1,2.794a15.141,15.141,0,0,1-2.006,3.116c-.245.278-.507.54-.774.795a.312.312,0,0,0-.106.372,35.563,35.563,0,0,1,.989,4.38c.264,1.276.461,2.568.644,3.858.119.837.159,1.686.239,2.529.062.649.13,1.3.194,1.945,0,.036,0,.071.007.106.037.954.078,1.908.109,2.864a6.094,6.094,0,0,0-.008.885c.05.271.245.513.316.783.236.9.466,1.809.657,2.723.135.654.205,1.322.3,1.985,0,.036,0,.071.008.107a40.322,40.322,0,0,1,.1,4.3,4.932,4.932,0,0,1-.478,1.992,1.5,1.5,0,0,1-1.164.91,2.422,2.422,0,0,1-.781-.074,17.509,17.509,0,0,1-4.389-1.523,12.317,12.317,0,0,1-3.645-2.962,9.044,9.044,0,0,1-1.471-2.383c-.014-.032-.026-.065-.04-.1-.04.029-.094.049-.119.089-.346.577-.672,1.166-1.035,1.73a5.964,5.964,0,0,1-1.723,1.855,5.519,5.519,0,0,1-2.269.839,2.3,2.3,0,0,1-1.62-.37,1.13,1.13,0,0,0-.174-.076.836.836,0,0,0-.025.207,24.607,24.607,0,0,1,.068,4.035,7.082,7.082,0,0,1-.855,2.981,3.085,3.085,0,0,1-.988,1.1,21.774,21.774,0,0,1-3.134,1.99,4,4,0,0,1-1.636.385,2.649,2.649,0,0,1-1.656-.459c-.159-.113-.212-.083-.214.112-.008.711.025,1.423-.017,2.13a10.492,10.492,0,0,1-.786,3.6,4.02,4.02,0,0,1-2.813,2.378,5.992,5.992,0,0,1-1.088.2,4.234,4.234,0,0,1-2.742-.976,8.733,8.733,0,0,1-2.449-2.9c-.22-.38-.4-.787-.6-1.18a1.966,1.966,0,0,0-.131-.2,1.129,1.129,0,0,0-.116.237c-.119.534-.216,1.071-.342,1.6a10.13,10.13,0,0,1-1.062,2.873,6.258,6.258,0,0,1-2.088,2.29c-.252.151-.531.259-.8.387C146.713,228.339,146.286,228.339,145.86,228.339Zm23.5-21.9h.028c-.032-.493-.066-.985-.1-1.478-.042-.687-.079-1.376-.123-2.064-.03-.439-.065-.88-.11-1.317q-.142-1.367-.3-2.731c-.074-.649-.153-1.3-.242-1.942-.128-.925-.265-1.848-.4-2.771q-.137-.917-.281-1.828c-.115-.731-.24-1.46-.354-2.19-.125-.8-.205-1.611-.368-2.4-.352-1.708-.728-3.408-1.212-5.088a43.089,43.089,0,0,0-2.529-6.678c-.755-1.582-1.523-3.157-2.287-4.733a.688.688,0,0,0-.071-.1.93.93,0,0,0-.037.095c-.065.293-.128.586-.193.879a5.315,5.315,0,0,1-2.384,3.437,7.027,7.027,0,0,1-3.906,1.157c-.317,0-.317.008-.2.33.236.665.521,1.316.7,2,.263,1.022.465,2.062.669,3.1.178.916.325,1.839.477,2.761.133.8.262,1.6.379,2.4.091.629.158,1.259.238,1.89q.141,1.1.285,2.2c.119.908.222,1.82.364,2.725.183,1.165.387,2.328.6,3.489.186,1,.362,2.013.612,3,.471,1.862,1.009,3.707,1.487,5.567.262,1.023.469,2.06.683,3.1.171.828.3,1.665.474,2.492.262,1.241.538,2.479.7,3.74a.6.6,0,0,0,.24.445,2.862,2.862,0,0,1,.509.533,1.525,1.525,0,0,0,1.31.578,3.041,3.041,0,0,0,1.552-.471c.789-.508,1.576-1.015,2.353-1.54a2.43,2.43,0,0,0,.917-1.079,6.314,6.314,0,0,0,.57-2.511c-.009-.834,0-1.667-.01-2.5S169.375,207.261,169.364,206.435Zm-8.37,12.007c-.06-.686-.113-1.568-.224-2.442s-.269-1.74-.427-2.606c-.128-.711-.283-1.416-.428-2.124-.3-1.484-.564-2.978-.923-4.448-.489-2-1.064-3.984-1.58-5.98-.221-.851-.407-1.714-.574-2.577-.157-.812-.268-1.634-.4-2.452-.154-.957-.321-1.911-.461-2.87-.094-.646-.151-1.3-.231-1.943-.1-.788-.2-1.572-.3-2.36-.082-.647-.139-1.3-.242-1.942-.193-1.2-.41-2.4-.62-3.593a1.775,1.775,0,0,0-.052-.186.852.852,0,0,0-.14.149c-.07.122-.124.255-.189.38a6.043,6.043,0,0,1-.476.875,8.453,8.453,0,0,1-.923,1.025,7.948,7.948,0,0,1-4.049,2.076,1.611,1.611,0,0,1-1.78-.934,11.688,11.688,0,0,1-.381-1.261c-.017-.06-.04-.119-.06-.177a.661.661,0,0,0-.041.2q.061.793.14,1.583c.032.333.069.666.122,1,.12.766.26,1.528.372,2.294.161,1.08.286,2.167.457,3.245.183,1.166.394,2.328.607,3.488.268,1.455.55,2.909.826,4.362.151.795.321,1.589.449,2.389.171,1.062.3,2.13.465,3.192q.287,1.8.618,3.594c.228,1.247.484,2.489.717,3.736.157.848.336,1.695.43,2.552a12.525,12.525,0,0,0,.465,2.383,14.119,14.119,0,0,0,1.589,3.343,6.546,6.546,0,0,0,2.172,2.144,2.683,2.683,0,0,0,.934.356,3.56,3.56,0,0,0,2.3-.479,2.755,2.755,0,0,0,1.184-1.58A14.417,14.417,0,0,0,160.994,218.442Zm-23.438-8.855h-.011c0,.177,0,.355,0,.532a10.423,10.423,0,0,0,.04,1.593,26.956,26.956,0,0,0,1.014,3.775c.454,1.375.953,2.734,1.411,4.106a14.352,14.352,0,0,0,1.954,4.158,3.987,3.987,0,0,0,1.4,1.486.633.633,0,0,1,.208.236,3.626,3.626,0,0,0,2.054,1.5,2.109,2.109,0,0,0,2.329-.57,7.542,7.542,0,0,0,1.538-2.514c.33-.937.481-1.912.729-2.866a4.644,4.644,0,0,0,.235-1.457.61.61,0,0,1,.169-.476c.221-.148.167-.308.134-.49s-.075-.381-.108-.572c-.175-1.059-.337-2.121-.524-3.178-.253-1.423-.53-2.839-.786-4.26-.176-.971-.339-1.944-.495-2.916-.124-.783-.22-1.571-.346-2.354-.121-.747-.262-1.49-.4-2.236q-.377-2.053-.761-4.1c-.008-.044-.053-.079-.08-.117-.033.033-.084.061-.1.1a9.4,9.4,0,0,1-1.521,2.779,2.332,2.332,0,0,1-1.242,1.022c-.341.083-.695.111-1.043.16a5.143,5.143,0,0,1-2.807-.3,2.024,2.024,0,0,1-.963-.805c-.215-.345-.393-.712-.592-1.066a.955.955,0,0,0-.119-.145c-.012.051-.023.1-.035.154-.249,1.1-.481,2.2-.749,3.3a20.541,20.541,0,0,0-.526,4.084C137.539,208.628,137.556,209.108,137.556,209.587Zm53.577-47.813c0-.639-.006-1.277,0-1.917a3.324,3.324,0,0,0-.336-1.486,12.031,12.031,0,0,0-1.49-2.564c-.268-.329-.539-.657-.8-.988a23.211,23.211,0,0,0-2.786-2.924c-1.137-1.006-2.341-1.942-3.535-2.882-1.1-.863-2.218-1.7-3.339-2.534a10.827,10.827,0,0,0-2.422-1.412c-.048-.018-.1-.038-.144-.057a1,1,0,0,0,.007.191c.192.823.4,1.643.581,2.47a44.844,44.844,0,0,0,1.294,4.851c.418,1.257.88,2.5,1.321,3.747.153.433.3.868.455,1.3.02.057.086.14.126.137s.117-.071.151-.125c.083-.136.14-.288.228-.419a1.677,1.677,0,0,1,.332-.409.584.584,0,0,1,.968.362,1.018,1.018,0,0,1-.173.537,16.881,16.881,0,0,0-1.358,2.874,28.01,28.01,0,0,0-1.1,4.408,21.219,21.219,0,0,0-.325,2.516,25.463,25.463,0,0,0,.413,6.336,10.048,10.048,0,0,0,.846,2.443.742.742,0,0,0,.094.117.539.539,0,0,0,.111-.151,24.724,24.724,0,0,1,1.249-3.262,14.776,14.776,0,0,1,2.014-3.175c.362-.457.741-.9,1.116-1.348a1.02,1.02,0,0,1,.917-.324,4.477,4.477,0,0,1,1.333.311c.956.418,1.888.891,2.818,1.367.2.1.226.064.269-.118.218-.908.45-1.813.668-2.719a17.289,17.289,0,0,0,.5-4.195C191.13,162.412,191.133,162.093,191.133,161.774ZM154.622,175.41a5.021,5.021,0,0,0,2.309-.487,4.25,4.25,0,0,0,2.671-3.191c.063-.309.139-.618.188-.929a2.793,2.793,0,0,0,.091-.939,9.757,9.757,0,0,0-.506-1.658c-.357-.9-.738-1.8-1.152-2.671-.461-.974-.968-1.926-1.46-2.887a1.452,1.452,0,0,0-.176-.265,3.379,3.379,0,0,0-1.234-1.063c-.174-.076-.309-.08-.409.092a19.076,19.076,0,0,0-1.054,1.836,15.981,15.981,0,0,0-.721,2.155,7.918,7.918,0,0,0-.265,2.2c0,.439.069.878.078,1.318.017.815.013,1.63.019,2.447,0,.159.024.318.027.476.007.42.007.839.008,1.26a1.419,1.419,0,0,0,0,.363c.119.424.238.85.393,1.261.23.606.383.692,1.027.691C154.516,175.41,154.568,175.41,154.622,175.41Zm26.675,2.272c.049.473.072.952.152,1.419a6.174,6.174,0,0,0,.626,1.959c.08.146.173.219.336.179.374-.093.752-.176,1.122-.284a5.124,5.124,0,0,0,1.829-1.136,10.3,10.3,0,0,0,2.029-2.832,11.753,11.753,0,0,0,1.222-3.208,11.177,11.177,0,0,0,.4-2.29c.015-.5,0-.928-.617-1.027-.063-.01-.116-.083-.179-.112a13.565,13.565,0,0,0-2.191-.923.87.87,0,0,0-1.011.354c-.193.253-.384.509-.569.768a22.755,22.755,0,0,0-1.429,2.1,26.677,26.677,0,0,0-1.362,3.16A4.774,4.774,0,0,0,181.3,177.682Zm-34.19,1.963c.014,0,.028,0,.042.006,0,.071,0,.142,0,.213.063.754.118,1.509.2,2.263.063.611.137,1.225.236,1.832.08.486.212.962.306,1.446.15.769.372.914,1.129.715.033-.009.064-.031.1-.04a6.778,6.778,0,0,0,3.066-1.813,8.243,8.243,0,0,0,.983-1.245.6.6,0,0,0,.136-.476c-.087-.484-.16-.973-.285-1.447-.4-1.515-.8-3.031-1.227-4.536a9.717,9.717,0,0,0-.948-2.352,7.3,7.3,0,0,0-.721-.977c-.188-.221-.233-.192-.5-.042a1.4,1.4,0,0,0-.558.623c-.231.454-.444.92-.641,1.39A14.471,14.471,0,0,0,147.4,178.2C147.309,178.68,147.2,179.163,147.107,179.645Zm-.65,16.98a11.2,11.2,0,0,0-.332-1.49c-.277-.762-.616-1.5-.965-2.237a6.788,6.788,0,0,0-.725-1.228,2.008,2.008,0,0,0-1.606-.795,1.111,1.111,0,0,0-1,.5,6.226,6.226,0,0,0-.342.6c-.279.571-.543,1.153-.823,1.724a6.177,6.177,0,0,0-.651,2.543,14.728,14.728,0,0,1-.2,2.265,2.024,2.024,0,0,0,.078,1.205c.216.482.444.96.692,1.425a.825.825,0,0,0,.487.383,3.389,3.389,0,0,0,2.377.02.7.7,0,0,1,.364-.033.669.669,0,0,0,.72-.336,8.483,8.483,0,0,0,1.384-2.37A8.887,8.887,0,0,0,146.457,196.625Zm21.158-31.192c-.046-.26-.116-.692-.2-1.122a4.1,4.1,0,0,0-.964-1.917c-.44-.506-.844-1.045-1.277-1.557a3.567,3.567,0,0,0-2.619-1.2.326.326,0,0,0-.39.269c-.074.29-.166.575-.249.863a8.439,8.439,0,0,0-.4,2.708,1.18,1.18,0,0,1-.006.266,2.98,2.98,0,0,0,.217,1.693,17.444,17.444,0,0,0,1.712,3.461,7.132,7.132,0,0,0,.683.941,1.63,1.63,0,0,0,2.491-.222,4.367,4.367,0,0,0,.444-.892A11.208,11.208,0,0,0,167.615,165.433ZM188.249,206.2l.042,0c-.053-1.042-.1-2.083-.16-3.125a8.65,8.65,0,0,0-.139-1.1c-.156-.812-.31-1.626-.512-2.427a10.63,10.63,0,0,0-.485-1.282c-.067-.17-.182-.2-.336-.1a2.3,2.3,0,0,0-.87.907,4.924,4.924,0,0,0-.405,1.846,10.651,10.651,0,0,0,.37,3.143,11.258,11.258,0,0,0,1.239,3.027,4.134,4.134,0,0,0,1.019,1.132c.142.116.191,0,.213-.1a1.9,1.9,0,0,0,.024-.371Z" style="fill: inherit;"/><path d="M173.986,192.14c-.366.02-.545-.1-.647-.334a.539.539,0,0,1,.205-.7c.458-.359.928-.7,1.4-1.041a.963.963,0,0,1,.292-.118.625.625,0,0,1,.689.244.486.486,0,0,1-.086.67c-.518.421-1.063.81-1.606,1.2A.6.6,0,0,1,173.986,192.14Z" style="fill: inherit;"/><path d="M161.971,206.813a2.4,2.4,0,0,1-.563-.245.521.521,0,0,1,.127-.934.88.88,0,0,1,.3-.09,10.166,10.166,0,0,0,2.754-.7,9.239,9.239,0,0,0,2.377-1.264,1.032,1.032,0,0,1,.435-.174.5.5,0,0,1,.579.273.582.582,0,0,1-.068.649,2.655,2.655,0,0,1-.513.458,12.623,12.623,0,0,1-4.118,1.734C162.851,206.611,162.424,206.713,161.971,206.813Z" style="fill: inherit;"/></g></svg>