<svg xmlns="http://www.w3.org/2000/svg" xmlns:xlink="http://www.w3.org/1999/xlink" preserveAspectRatio="xMidYMid meet" version="1.0" viewBox="0.0 0.0 1873.7 1004.6" zoomAndPan="magnify" style="fill: rgb(0, 0, 0);" original_string_length="1027" width="149.71521700387996px" height="80.29017774220881px"><g id="__id0_set5ag753f"><path d="M1365.5 269.1L1298.4 543.9 1259.2 543.9 1248.3 590.8 1186.6 351 1142.7 501.2 1090.9 501.2 1079.2 550.9 1018.6 262.4 959.3 501.2 914 501.2 899.1 580.3 860 456.1 820.2 456.1 800.8 343.6 741.1 501.2 463.6 501.2 431.3 652.1 355.7 0 269.7 791.5 178 270 96.7 504.9 0 504.9 0 534.9 118 534.9 168.5 389.1 276.8 1004.6 356.7 268.8 422.6 836.6 487.9 531.2 761.8 531.2 789.9 457 794.9 486.1 838 486.1 906.3 703.5 938.8 531.2 982.7 531.2 1016.1 396.7 1077.5 688.9 1114.6 531.2 1165.2 531.2 1184.8 464.3 1249.9 717.3 1283 573.9 1321.9 573.9 1362.1 409.5 1385.6 531.2 1873.7 531.2 1873.7 501.2 1410.3 501.2z" style="fill: rgb(255, 224, 138);"/></g></svg>