<svg xmlns="http://www.w3.org/2000/svg" xmlns:xlink="http://www.w3.org/1999/xlink" preserveAspectRatio="xMidYMid meet" version="1.0" viewBox="-0.4 -0.2 129.1 100.6" zoomAndPan="magnify" style="fill: rgb(0, 0, 0);" original_string_length="6743" width="179.99064468299164px" height="140.24271064883098px"><g><g id="__id14_set5ag753f"><path d="M105.6,44.38c.49,5.77-5.92,10.78-11.67,8.45-2.55-1.04-4.19-3.55-4.17-6.42.03-3.02,1.76-5.75,4.22-6.66,2.43-.89,4.87.36,5.66,2.89.7,2.26-.56,4.58-2.87,5.26-.71.21-1.43.28-2.1-.06-.68-.34-1.25-.84-.99-1.69.22-.75.79-.91,1.52-.62.89.36,1.63,0,2.04-.76.4-.75.22-1.56-.35-2.23-.68-.8-1.59-.88-2.57-.23-1.7,1.13-2.46,3.97-1.61,6.01.77,1.84,3.06,2.97,5.17,2.55,3.11-.62,5.35-3.37,5.29-6.49-.06-3.26-2.46-5.95-5.69-6.39-4.54-.62-7.41,1.23-8.79,5.71-.24.79-.51,1.67-1.54,1.45-1.08-.23-1.14-1.1-.97-2.08.56-3.19,2.5-5.41,5.25-6.73,5.6-2.68,11.4-.44,13.61,4.84.45,1.06.62,2.14.57,3.19Z" style="fill: rgb(255, 140, 170);"/></g><g id="__id15_set5ag753f"><path d="M42.3,66.3c-.03,3.77-2.27,7-5.62,8.33-.61.24-1.21.44-1.85.23-.56-.19-.98-.58-1.03-1.19-.04-.56.38-.84.85-1.02.44-.18.91-.31,1.34-.51,2.75-1.28,4.2-3.87,3.84-6.79-.34-2.74-2.4-4.72-5.49-5.17-1.87-.27-3.67.15-5.29,1.08-1.85,1.06-2.59,3.08-1.97,4.92.71,2.07,2.73,3.34,4.85,3.1.96-.11,1.69-.55,2.04-1.43.27-.67.33-1.43-.22-2.03-.5-.55-1.16-.47-1.78-.26-.53.18-1.01.47-1.54.66-.59.21-1.12.09-1.43-.51-.31-.6-.04-1.07.41-1.47,1.8-1.61,4.85-1.56,6.32.1,1.38,1.56,1.08,4.45-.64,6.07-2.1,1.99-6.32,1.8-8.52-.44-3.16-3.21-3.34-8.94,2.26-11.38,3.16-1.37,6.38-1.39,9.45.31,2.94,1.63,4.22,4.23,4.02,7.4Z" style="fill: rgb(255, 140, 170);"/></g><g id="__id16_set5ag753f"><path d="M123.7,62.34c-.77-.17-1.36-.56-1.84-1.11-1.39-1.58-2.95-2.78-5.15-3.15-1.42-.24-1.77-1.23-.99-2.5,1.16-1.9,2.14-3.85,2.82-5.99.48-1.5,1.09-1.49,2.46-.6,1.65,1.08,3.37,2.05,5.05,3.09,1.38.86,1.52,1.39.35,2.53-.61.6-.72,1.2-.68,1.9.09,1.45-.37,2.83-.55,4.24-.11.86-.61,1.44-1.48,1.58Z" style="fill: rgb(255, 224, 138);"/></g><g id="__id17_set5ag753f"><path d="M11.99,33.36c-.47,2.15-.92,4.31-1.43,6.46-.25,1.06-1.18,1.45-1.99.75-1.87-1.6-3.87-3.08-5.49-4.96-.76-.88-1.03-1.97-.24-2.82,1.12-1.21,1.09-2.58,1.09-4.01,0-.47-.02-.97.12-1.42.22-.73.85-1.11,1.48-.69,1.12.72,2.48,1.08,3.34,2.23.76,1.02,1.46,2.08,2.6,2.77.6.37.66,1.05.53,1.7Z" style="fill: rgb(255, 224, 138);"/></g><g id="__id18_set5ag753f"><path d="M82.41,69.78c-.09,0-.41.02-.73,0-2.83-.19-3.69-1.68-2.34-4.13.69-1.25,1.48-2.45,2.33-3.59.66-.87,1.55-1.42,2.69-.73.44.26.92.2,1.38.31,1.58.38,2.84,1.64,3.03,2.99.25,1.79-.64,3.63-2.2,4.42-1.23.62-2.57.79-4.17.74Z" style="fill: rgb(255, 118, 152);"/></g><g id="__id19_set5ag753f"><path d="M30.22,93.8c-.02.74.08,1.71-.35,2.61-.58,1.19-1.3,1.41-2.19.49-.45-.47-.91-.87-1.42-1.23-1.91-1.36-2.15-3.46-.59-5.22.9-1.01,2.11-.6,3.15-.49.97.1,1.39.97,1.4,1.95,0,.56,0,1.12,0,1.89Z" style="fill: rgb(255, 224, 138);"/></g><g id="__id20_set5ag753f"><path d="M83.78,50.51c-.27,2.94-.52,5.69-.78,8.57.53.15,1.06.27,1.57.44.83.27,1.7.49,2.46.89,2.73,1.44,4.09,4.01,3.6,6.68-.44,2.43-2.72,4.48-5.54,4.97-2.79.49-4.78-.04-8.09-2.13-9.08,8.63-21.97,7.46-31.17-3.57-.36.4-.63.91-1.06,1.14-.42.23-1.17.4-1.44.18-.3-.24-.33-.97-.25-1.46.07-.44.4-.88.7-1.23,1.14-1.33,2.29-2.66,3.5-3.93.52-.54,1.29-.83,1.91-.16.63.68.2,1.32-.35,1.87-.39.4-.76.8-1.13,1.19,5.05,8.68,19.37,14.04,28.51,2.72,3.66-4.53,5.02-9.85,4.76-15.8-.88.05-1.58.17-2.26.09-.4-.05-1.08-.44-1.07-.65.02-.47.32-.99.66-1.35.24-.25.72-.36,1.1-.39,1.98-.17,3.97-.32,5.96-.43.47-.03.95.1,1.41.23.74.22,1.45.68,1.13,1.5-.15.39-.95.69-1.49.74-.85.08-1.72-.07-2.66-.13ZM78.8,67.88c1.95,2.19,5.73,2.22,7.57,1.06,2.24-1.41,2.5-3.8.54-5.58-1.38-1.25-3.04-1.59-4.83-1.53-1.09,2.02-2.15,3.96-3.28,6.05Z" style="fill: inherit;"/></g><g id="__id21_set5ag753f"><path d="M128.73,52.15c-.13.57-.12.84-.25,1.02-1.93,2.81-1.64,6.09-1.94,9.24-.06.63-.06,1.29-.24,1.89-.33,1.11-1.03,1.35-1.99.65-.84-.61-1.61-1.31-2.4-1.98-2.22-1.89-4.62-3.36-7.54-3.96-2.02-.42-2.31-1.62-1.03-3.28,2.21-2.89,4.01-5.95,4.11-9.75.01-.46.44-1.23.75-1.27.52-.07,1.37.17,1.62.57,1.78,2.78,4.52,4.19,7.37,5.52.63.3,1.1.96,1.53,1.35ZM119.68,49.15c-1.23,2.59-2.41,5.09-3.55,7.47,2.64,1.5,5.23,2.97,7.85,4.45.49-2.71.98-5.42,1.47-8.2-1.85-1.19-3.77-2.43-5.78-3.73Z" style="fill: inherit;"/></g><g id="__id22_set5ag753f"><path d="M11.23,43.89c-.69-.45-1.24-.76-1.74-1.14-1.39-1.07-2.7-2.26-4.14-3.24-1.11-.75-2.36-1.33-3.6-1.85-2-.84-2.11-1.16-1.2-3.18.85-1.88,1.64-3.8,2.32-5.76.33-.96.25-2.06.55-3.03.19-.61.64-1.33,1.18-1.59.35-.17,1.23.22,1.58.62,2.03,2.34,4.51,4,7.34,5.22,1.4.6,1.73,1.22,1.11,2.14-1.9,2.8-1.91,6.02-2.25,9.17-.05.47.09,1.01-.08,1.42-.19.44-.64.77-1.05,1.22ZM9.88,39.63c.59-2.65,1.15-5.18,1.7-7.65-2-1.35-3.92-2.65-5.86-3.96-.93,2.57-1.79,4.94-2.64,7.31,2.19,1.39,4.39,2.77,6.81,4.3Z" style="fill: inherit;"/></g><g id="__id23_set5ag753f"><path d="M32.07,90.61c0,.28.25,1.11-.04,1.65-1.01,1.86-.88,3.83-.91,5.82-.02,1.79-.94,2.33-2.39,1.3-1.81-1.29-3.52-2.68-5.74-3.3-1.05-.29-1.43-1.61-.86-2.58,1.09-1.88,1.93-3.8,2.28-5.97.16-1,.89-1.12,1.79-.55,1.78,1.13,3.59,2.23,5.87,3.64ZM24.74,93.97c1.29.72,2.51,1.39,3.88,2.15.27-1.58.5-2.94.73-4.3-1.08-.54-1.98-1-3.05-1.54-.54,1.29-1.02,2.43-1.56,3.69Z" style="fill: inherit;"/></g><g id="__id24_set5ag753f"><path d="M92.85,8.68c.34,1.76.61,3.33.96,4.87.18.79.6,1.58-.4,2.08-.79.4-1.66-.19-2.02-1.47-.32-1.15-.47-2.35-.71-3.52-.06-.3-.18-.59-.33-1.08-.98.28-1.88.56-2.79.78-.61.15-1.26.34-1.87.29-.39-.03-1.06-.49-1.05-.72.03-.45.35-1.12.73-1.28,1.46-.6,3-1.03,4.75-1.61-.22-1.24-.44-2.39-.62-3.54-.11-.71-.34-1.45-.21-2.12.1-.51.6-1.19,1.05-1.32.73-.21,1.08.43,1.19,1.15.18,1.18.39,2.36.61,3.54.07.37.23.73.41,1.26.69-.2,1.28-.34,1.85-.55.83-.3,1.63-.66,2.45-.96,1.46-.52,2.26-.37,2.47.47.3,1.21-.69,1.49-1.48,1.81-1.54.63-3.11,1.2-5.01,1.92Z" style="fill: inherit;"/></g><g id="__id25_set5ag753f"><path d="M43.1,47.46c1.87.18,3.7.32,5.51.56.61.08,1.26.33,1.75.69.3.22.52.88.41,1.21-.11.31-.72.65-1.09.62-.95-.06-1.87-.43-2.82-.48-4.08-.23-8.14-.07-12.12.95-.23.06-.45.15-.68.22-.7.2-1.43.06-1.52-.67-.06-.48.33-1.26.75-1.52.73-.44,1.62-.7,2.47-.81,2.45-.32,4.91-.52,7.35-.77Z" style="fill: inherit;"/></g><g id="__id26_set5ag753f"><path d="M84.2,32.65c-.81.64-1.28,1.12-1.85,1.44-2.56,1.46-5.21,2.76-7.69,4.35-1.66,1.07-3.09,2.5-4.58,3.81-.59.52-1.08,1.43-1.96.69-.93-.79-.29-1.61.29-2.28.63-.72,1.26-1.49,2.04-2.01,3.09-2.11,6.22-4.17,9.39-6.15.78-.48,1.78-.68,2.71-.8.39-.05.85.47,1.65.95Z" style="fill: inherit;"/></g><g id="__id27_set5ag753f"><path d="M3.95,62.71c-.22-.91-.52-1.6-.53-2.29,0-.47.27-1.13.63-1.36.68-.43,1.19.07,1.49.71.2.42.35.88.5,1.27.88.43,2.24-.77,2.51.62.13.69-.7,1.56-1.34,2.84.12.36.43,1.25.74,2.14.25.71.44,1.49-.41,1.88-.96.44-1.47-.27-1.83-1.03-.33-.71-.62-1.44-.95-2.22-.72.16-1.33.41-1.93.39-.39-.02-.96-.37-1.09-.71-.12-.32.11-.96.39-1.21.45-.41,1.09-.62,1.82-1Z" style="fill: inherit;"/></g></g></svg>