<svg xmlns="http://www.w3.org/2000/svg" xmlns:xlink="http://www.w3.org/1999/xlink" preserveAspectRatio="xMidYMid meet" version="1.0" viewBox="-2.2 -1.6 365.8 503.4" zoomAndPan="magnify" style="fill: rgb(0, 0, 0);" original_string_length="6623" width="81.31781867903064px" height="111.53316776425648px"><defs><clipPath id="__id4_set5ag753f"><path d="M 243 183 L 363.570312 183 L 363.570312 384 L 243 384 Z M 243 183"/></clipPath></defs><g><g id="__id5_set5ag753f"><path d="M 157.945312 474.46875 C 152.496094 440.183594 142.507812 399.882812 116.40625 378.035156 C 121.992188 377.671875 127.960938 377.046875 129.171875 376.632812 C 138.933594 373.277344 146.511719 365.242188 152.648438 357.34375 C 162.292969 344.925781 168.316406 329.941406 173.410156 314.78125 C 173.894531 330.269531 175.097656 345 185.105469 359.457031 C 190.554688 367.328125 198.238281 372.21875 206.773438 375.109375 C 175.179688 391.828125 167.863281 438.574219 157.945312 474.46875 Z M 227.1875 369.144531 C 207.363281 368.261719 193.625 359.683594 185.792969 340.996094 C 179.101562 325.039062 183.621094 305.8125 181.511719 288.976562 C 180.859375 283.78125 173.949219 282.328125 172.15625 287.710938 C 165.347656 308.1875 159.265625 328.824219 148.003906 347.414062 C 140.355469 360.039062 128.921875 368.929688 113.914062 370.179688 C 109 370.589844 103.261719 367.132812 99.269531 371.050781 C 97.132812 373.148438 97.53125 377.078125 100.234375 378.53125 C 138.109375 398.902344 146.390625 457.394531 151.40625 495.367188 C 152.117188 500.746094 158.699219 501.792969 160.761719 496.632812 C 175.121094 460.667969 178.011719 383.480469 227.1875 378.671875 C 230.515625 378.820312 232.027344 376.089844 231.746094 373.515625 C 231.777344 371.113281 230.265625 368.84375 227.1875 369.144531" style="fill: rgb(245, 222, 168);"/></g><g id="__id6_set5ag753f"><path d="M 92.273438 128.777344 C 109.4375 123.894531 121.863281 109.199219 130.539062 92.207031 C 131.527344 115.183594 138.589844 136.886719 158.503906 149.675781 C 135.03125 160.460938 124.578125 180.472656 114.230469 202.78125 C 115.03125 175.671875 111.265625 143.925781 92.273438 128.777344 Z M 102.710938 228.15625 C 102.117188 232.90625 109.53125 234.597656 111.585938 230.558594 C 127.246094 199.765625 134.1875 166.121094 171.320312 154.996094 C 174.878906 153.933594 176.480469 148.019531 172.457031 146.296875 C 138.414062 131.703125 137.398438 94.847656 141.566406 62.863281 C 142.277344 57.394531 133.640625 56.605469 132.214844 61.597656 C 124.472656 88.652344 107.300781 126.59375 72.949219 120.472656 C 72.738281 120.433594 72.527344 120.410156 72.320312 120.398438 C 72.109375 120.367188 71.902344 120.328125 71.683594 120.300781 C 68.726562 119.914062 67.230469 121.976562 67.164062 124.28125 C 66.539062 126.570312 67.410156 129.117188 70.417969 129.652344 C 71.460938 129.839844 72.484375 129.984375 73.496094 130.109375 C 110.710938 136.972656 106.171875 200.421875 102.710938 228.15625" style="fill: rgb(245, 222, 168);"/></g><g id="__id7_set5ag753f"><path d="M 11.402344 176.75 C 13.527344 172.914062 20.339844 165.398438 25.039062 169.398438 C 27.996094 174.546875 28.660156 180.339844 25.828125 186 C 23.785156 190.082031 19.410156 194.441406 14.515625 192.816406 C 12.015625 191.988281 10.453125 188.351562 9.621094 186.175781 C 8.425781 183.027344 9.882812 179.496094 11.402344 176.75 Z M 8.148438 199.996094 C 16.429688 205.96875 26.71875 201.28125 32.136719 193.816406 C 39.101562 184.21875 38.648438 171.382812 31.554688 162.007812 C 30.546875 160.675781 29.191406 160.074219 27.828125 160 C 19.65625 156.339844 10.152344 162.117188 4.933594 169.304688 C -2.023438 178.890625 -2.203125 192.535156 8.148438 199.996094" style="fill: rgb(245, 222, 168);"/></g><g id="__id8_set5ag753f"><path d="M 300.917969 148.4375 C 301.945312 143.496094 307.382812 131.3125 314.074219 132.210938 C 328.140625 135.496094 318.441406 153.882812 309.160156 157.304688 C 302.515625 159.753906 299.738281 154.101562 300.917969 148.4375 Z M 306.644531 167.335938 C 328.121094 167.746094 341.550781 130.179688 317.789062 123.339844 C 317.4375 123.195312 317.050781 123.089844 316.605469 123.027344 C 316.046875 122.898438 315.515625 122.859375 315.015625 122.902344 C 292.820312 122.074219 279.007812 166.808594 306.644531 167.335938" style="fill: rgb(245, 222, 168);"/></g><g id="__id9_set5ag753f"><path d="M 55.6875 244.710938 C 46.890625 298.96875 4.855469 302.882812 4.855469 302.882812 C 4.855469 302.882812 43.960938 324.878906 43.960938 375.230469 C 43.960938 375.230469 46.925781 352.925781 56.675781 332.699219 C 66.421875 312.480469 83.070312 306.527344 83.070312 306.527344 C 52.277344 306.527344 55.6875 244.710938 55.6875 244.710938" style="fill: rgb(245, 222, 168);"/></g><g clip-path="url(#__id4_set5ag753f)" id="__id10_set5ag753f"><path d="M 321.695312 183.449219 C 308.246094 266.433594 243.953125 272.425781 243.953125 272.425781 C 243.953125 272.425781 303.761719 306.0625 303.761719 383.058594 C 303.761719 383.058594 308.300781 348.953125 323.210938 318.023438 C 338.109375 287.101562 363.570312 277.992188 363.570312 277.992188 C 316.476562 277.996094 321.695312 183.449219 321.695312 183.449219" style="fill: rgb(245, 222, 168);"/></g><g id="__id11_set5ag753f"><path d="M 243.402344 202.101562 C 241.390625 200.027344 238.925781 198.992188 236.476562 199.023438 C 236.152344 198.980469 235.808594 198.964844 235.441406 198.988281 C 225.121094 199.644531 223.613281 212.292969 231.195312 217.90625 C 240.582031 224.851562 251.148438 210.089844 243.402344 202.101562" style="fill: rgb(245, 222, 168);"/></g><g id="__id12_set5ag753f"><path d="M 190.015625 115.5 C 193.320312 117.730469 196.773438 116.652344 199.609375 114.304688 C 203.386719 111.171875 202.097656 105.839844 199.410156 102.625 C 197.414062 100.242188 194.855469 99.886719 192.5625 100.691406 C 185.585938 102.207031 183.6875 111.230469 190.015625 115.5" style="fill: rgb(245, 222, 168);"/></g><g id="__id13_set5ag753f"><path d="M 239.175781 29.285156 C 242.398438 40.375 248.511719 48.078125 259.003906 55.019531 C 247.222656 62.152344 242.175781 77.867188 238.925781 92.148438 C 234.183594 77.621094 226.910156 61.441406 214.503906 53.777344 C 224.488281 47.480469 233.414062 40.074219 239.175781 29.285156 Z M 202 57.394531 C 202.921875 58.269531 204.128906 58.792969 205.453125 58.664062 C 224.570312 65.089844 230.992188 92.859375 235 110.378906 C 236.039062 114.910156 243.179688 114.960938 244.183594 110.378906 C 247.816406 93.753906 249.652344 63.628906 269.96875 59.457031 C 274.019531 58.625 274.605469 52.648438 271.105469 50.753906 C 251.550781 40.152344 246.195312 26.355469 245.683594 4.597656 C 245.535156 -1.632812 236.710938 -1.429688 236.160156 4.597656 C 234.425781 23.570312 218.390625 40.402344 202.535156 49.433594 C 200.546875 50.566406 199.96875 52.476562 200.300781 54.265625 C 200.296875 55.445312 200.820312 56.605469 202 57.394531" style="fill: rgb(245, 222, 168);"/></g></g></svg>